HIERARCHY
ROOT joint_Root
{
	OFFSET 0.0 0.0 0.0
	CHANNELS 6 Xposition Yposition Zposition Zrotation Xrotation Yrotation 
	JOINT Hips
	{
		OFFSET 4.5925 91.4895 -427.239
		CHANNELS 6 Xposition Yposition Zposition Zrotation Xrotation Yrotation 
		JOINT Spine
		{
			OFFSET 15.7357 0.0 0.0
			CHANNELS 6 Xposition Yposition Zposition Zrotation Xrotation Yrotation 
			JOINT Chest
			{
				OFFSET 8.98455 -0.406207 0.0
				CHANNELS 6 Xposition Yposition Zposition Zrotation Xrotation Yrotation 
				JOINT Neck
				{
					OFFSET 16.3773 0.0 0.0
					CHANNELS 6 Xposition Yposition Zposition Zrotation Xrotation Yrotation 
					JOINT Head
					{
						OFFSET 6.45672 0.0 0.0
						CHANNELS 6 Xposition Yposition Zposition Zrotation Xrotation Yrotation 
						End Site
						{
							OFFSET 0.0 0.0 0.0
						}
					}
				}
				JOINT Shoulder_L
				{
					OFFSET 12.9942 -0.242716 4.98039
					CHANNELS 6 Xposition Yposition Zposition Zrotation Xrotation Yrotation 
					JOINT UpperArm_L
					{
						OFFSET 5.34809 0.0 0.0
						CHANNELS 6 Xposition Yposition Zposition Zrotation Xrotation Yrotation 
						JOINT LowerArm_L
						{
							OFFSET 24.3286 1.87007e-05 0.0
							CHANNELS 6 Xposition Yposition Zposition Zrotation Xrotation Yrotation 
							JOINT Hand_L
							{
								OFFSET 22.2916 0.0 0.0
								CHANNELS 6 Xposition Yposition Zposition Zrotation Xrotation Yrotation 
								End Site
								{
									OFFSET 0.0 0.0 0.0
								}
							}
						}
					}
				}
				JOINT Shoulder_R
				{
					OFFSET 12.9945 -0.242716 -4.98039
					CHANNELS 6 Xposition Yposition Zposition Zrotation Xrotation Yrotation 
					JOINT UpperArm_R
					{
						OFFSET -5.34813 0.0 0.0
						CHANNELS 6 Xposition Yposition Zposition Zrotation Xrotation Yrotation 
						JOINT LowerArm_R
						{
							OFFSET -24.3289 0.000322201 0.0
							CHANNELS 6 Xposition Yposition Zposition Zrotation Xrotation Yrotation 
							JOINT Hand_R
							{
								OFFSET -22.2915 -0.000108084 0.0
								CHANNELS 6 Xposition Yposition Zposition Zrotation Xrotation Yrotation 
								End Site
								{
									OFFSET 0.0 0.0 0.0
								}
							}
						}
					}
				}
			}
		}
		JOINT UpperLeg_L
		{
			OFFSET -2.19248 -6.46944 0.0
			CHANNELS 6 Xposition Yposition Zposition Zrotation Xrotation Yrotation 
			JOINT LowerLeg_L
			{
				OFFSET 39.0811 0.0 -1.23785e-05
				CHANNELS 6 Xposition Yposition Zposition Zrotation Xrotation Yrotation 
				JOINT Foot_L
				{
					OFFSET 40.9854 0.0 -1.26872e-05
					CHANNELS 6 Xposition Yposition Zposition Zrotation Xrotation Yrotation 
					JOINT Toes_L
					{
						OFFSET 11.7543 0.0 0.0
						CHANNELS 6 Xposition Yposition Zposition Zrotation Xrotation Yrotation 
						End Site
						{
							OFFSET 0.0 0.0 0.0
						}
					}
				}
			}
		}
		JOINT UpperLeg_R
		{
			OFFSET -2.19251 6.46944 0.0
			CHANNELS 6 Xposition Yposition Zposition Zrotation Xrotation Yrotation 
			JOINT LowerLeg_R
			{
				OFFSET -39.0811 -0.00228153 -0.0401928
				CHANNELS 6 Xposition Yposition Zposition Zrotation Xrotation Yrotation 
				JOINT Foot_R
				{
					OFFSET -40.9854 0.0 0.0
					CHANNELS 6 Xposition Yposition Zposition Zrotation Xrotation Yrotation 
					JOINT Toes_R
					{
						OFFSET -11.7543 0.0 0.0
						CHANNELS 6 Xposition Yposition Zposition Zrotation Xrotation Yrotation 
						End Site
						{
							OFFSET 0.0 0.0 0.0
						}
					}
				}
			}
		}
	}
}
MOTION
Frames:	4
Frame Time:	0.0333333
0.000000 0.000000 0.000000 0.000000 0.000000 -0.000000 -0.498321 88.615200 4.785660 88.797800 -3.518430 0.316400 15.735700 0.000005 -0.000001 59.386000 82.888600 -59.440100 8.984550 -0.406207 -0.000000 4.500080 -7.229020 0.176273 16.377300 -0.000001 -0.000001 -1.537800 0.493817 -2.832020 6.456720 -0.000001 -0.000000 -12.111100 2.813540 -0.812933 12.994200 -0.242716 4.980390 -90.340200 1.141030 -73.402100 5.348090 -0.000007 -0.000001 -47.627700 6.960500 -47.928300 24.328600 0.000019 0.000005 11.895600 7.521440 -58.143600 22.291600 -0.000001 0.000005 19.293800 5.312820 -0.289773 12.994500 -0.242716 -4.980390 87.683000 10.313200 -77.265000 -5.348130 -0.000001 -0.000004 -65.316700 13.448800 8.781180 -24.328900 0.000322 -0.000009 1.141960 9.404610 -6.961780 -22.291500 -0.000108 -0.000004 13.622800 5.307260 -0.132392 -2.192480 -6.469440 -0.000000 -170.596000 -16.747500 8.539890 39.081100 -0.000007 -0.000012 -0.031699 0.071354 23.953300 40.985400 -0.000006 -0.000013 3.198580 20.443800 -77.756700 11.754300 -0.000000 0.000003 -0.013946 -0.131085 -21.923500 -2.192510 6.469440 -0.000001 -163.842000 29.074800 148.947000 -39.081100 -0.002282 -0.040193 0.068201 -0.206214 17.463700 -40.985400 0.000008 0.000006 13.885900 -0.134390 -54.211000 -11.754300 -0.000006 -0.000006 -0.021910 -0.177648 -23.834900
0.000000 0.000000 0.000000 0.000000 0.000000 -0.000000 -1.288260 88.082600 9.026210 88.092800 -1.193790 0.444574 15.735700 0.000005 -0.000001 57.569500 82.653700 -56.828000 8.984550 -0.406207 -0.000000 4.722720 -7.884620 1.808590 16.377300 -0.000001 -0.000001 -0.952648 0.290481 -3.241280 6.456720 -0.000001 -0.000000 -11.696700 3.196400 -1.672450 12.994200 -0.242716 4.980390 -90.721200 2.398220 -73.257200 5.348090 -0.000007 -0.000001 -45.955800 10.401400 -44.715500 24.328600 0.000019 0.000005 13.115400 7.514650 -60.692600 22.291600 -0.000001 0.000005 19.768200 5.329530 -0.771958 12.994500 -0.242716 -4.980390 87.272600 11.082300 -76.081100 -5.348130 -0.000001 -0.000004 -64.927400 14.557700 9.341360 -24.328900 0.000322 -0.000009 1.228930 8.928920 -7.875910 -22.291500 -0.000108 -0.000004 13.071400 5.320130 -0.499599 -2.192480 -6.469440 -0.000000 -169.084000 -13.784300 7.978590 39.081100 -0.000007 -0.000012 -0.016592 0.029566 29.301200 40.985400 -0.000006 -0.000013 3.988110 20.178400 -76.921200 11.754300 -0.000000 0.000003 -0.037056 -0.248171 -26.763200 -2.192510 6.469440 -0.000001 -165.060000 29.515100 147.115000 -39.081100 -0.002282 -0.040193 0.041076 -0.080757 25.062000 -40.985400 0.000008 0.000006 12.415400 -1.370150 -49.956200 -11.754300 -0.000006 -0.000006 -0.017677 -0.154063 -22.863500
0.000000 0.000000 0.000000 0.000000 0.000000 -0.000000 -1.951280 87.785000 13.598200 88.104200 -0.542017 2.268330 15.735700 0.000005 -0.000001 60.503900 82.324400 -59.241500 8.984550 -0.406207 -0.000000 5.719260 -7.562550 2.903140 16.377300 -0.000001 -0.000001 -0.725778 0.416505 -3.227850 6.456720 -0.000001 -0.000000 -10.660000 3.548900 -2.931640 12.994200 -0.242716 4.980390 -90.908200 2.995650 -73.125200 5.348090 -0.000007 -0.000001 -46.708600 15.303500 -39.775500 24.328600 0.000019 0.000005 16.171000 8.903110 -61.911100 22.291600 -0.000001 0.000005 19.256500 5.348420 -1.331070 12.994500 -0.242716 -4.980390 87.221800 11.182500 -75.951700 -5.348130 -0.000001 -0.000004 -65.186600 15.237000 9.405550 -24.328900 0.000322 -0.000009 1.199770 8.142930 -8.418040 -22.291500 -0.000108 -0.000004 12.746700 5.332580 -0.861472 -2.192480 -6.469440 -0.000000 -168.390000 -11.582600 7.597550 39.081100 -0.000007 -0.000012 0.020952 -0.027651 37.150900 40.985400 -0.000006 -0.000013 3.780030 19.164900 -71.535100 11.754300 -0.000000 0.000003 -0.098713 -0.441365 -34.991800 -2.192510 6.469440 -0.000001 -168.074000 29.757900 148.576000 -39.081100 -0.002282 -0.040193 -0.101781 0.158409 33.557000 -40.985400 0.000008 0.000006 10.578800 -1.686830 -55.418700 -11.754300 -0.000006 -0.000006 -0.011101 -0.111688 -21.125000
0.000000 0.000000 0.000000 0.000000 0.000000 -0.000000 -2.762070 87.818000 18.005900 87.680400 -1.193760 4.682590 15.735700 0.000005 -0.000001 66.549200 81.959900 -64.722800 8.984550 -0.406207 -0.000000 7.124490 -6.387340 4.049840 16.377300 -0.000001 -0.000001 -0.385007 0.653580 -2.886390 6.456720 -0.000001 -0.000000 -9.842770 3.645060 -3.378390 12.994200 -0.242716 4.980390 -91.001500 3.244780 -72.836900 5.348090 -0.000007 -0.000001 -48.747900 21.337300 -34.525700 24.328600 0.000019 0.000005 17.607300 10.565200 -59.984000 22.291600 -0.000001 0.000005 18.137400 5.361770 -1.735010 12.994500 -0.242716 -4.980390 87.386800 11.020400 -76.571700 -5.348130 -0.000001 -0.000004 -65.775200 16.424500 8.293730 -24.328900 0.000322 -0.000009 1.143110 7.764810 -8.408720 -22.291500 -0.000108 -0.000004 12.225400 5.329460 -0.769480 -2.192480 -6.469440 -0.000000 -166.870000 -11.042300 5.634740 39.081100 -0.000007 -0.000012 0.106661 -0.098294 47.336900 40.985400 -0.000006 -0.000013 1.548780 18.146300 -61.725300 11.754300 -0.000000 0.000003 -0.111206 -0.471560 -36.316700 -2.192510 6.469440 -0.000001 -169.913000 32.771000 152.865000 -39.081100 -0.002282 -0.040193 -0.179211 0.236658 37.637200 -40.985400 0.000008 0.000006 10.274200 0.746817 -60.941900 -11.754300 -0.000006 -0.000006 -0.006609 -0.076270 -19.677700
